<svg width="32" height="32" viewBox="0 0 32 32" fill="none" xmlns="http://www.w3.org/2000/svg">
								<path d="M19.9999 12L14.6666 17.3333L11.9999 14.6667M26.6666 8.2666V13.5531C26.6666 22.3108 20.0425 26.2371 17.2343 27.5082C16.9366 27.643 16.7887 27.7104 16.4517 27.7683C16.2392 27.8048 15.7616 27.8048 15.5491 27.7683C15.2121 27.7104 15.0629 27.643 14.7652 27.5082C11.957 26.2371 5.33325 22.3107 5.33325 13.5531V8.2666C5.33325 6.77313 5.33325 6.02649 5.6239 5.45605C5.87956 4.95429 6.28722 4.54631 6.78898 4.29065C7.35941 4 8.10671 4 9.60018 4H22.4002C23.8937 4 24.6399 4 25.2103 4.29065C25.7121 4.54631 26.1206 4.95429 26.3762 5.45605C26.6669 6.02649 26.6666 6.77313 26.6666 8.2666Z" stroke="#6C9569" stroke-width="2" stroke-linecap="round" stroke-linejoin="round"></path>
							</svg>