<svg width="40" height="40" viewBox="0 0 40 40" fill="none" xmlns="http://www.w3.org/2000/svg">
										<path fill-rule="evenodd" clip-rule="evenodd" d="M15.9867 5.33333C15.7245 5.57052 15.4491 5.79254 15.1617 5.99833C14.665 6.33167 14.1067 6.56167 13.52 6.67833C13.265 6.72833 12.9983 6.75 12.4667 6.79167C11.1317 6.89833 10.4633 6.95167 9.90666 7.14833C9.27015 7.37306 8.69204 7.73745 8.21474 8.21475C7.73744 8.69205 7.37305 9.27016 7.14832 9.90667C6.95166 10.4633 6.89832 11.1317 6.79166 12.4667C6.77348 12.8196 6.73564 13.1713 6.67832 13.52C6.56166 14.1067 6.33166 14.665 5.99832 15.1617C5.85332 15.3783 5.67999 15.5817 5.33332 15.9867C4.46499 17.0067 4.02999 17.5167 3.77499 18.05C3.18666 19.2833 3.18666 20.7167 3.77499 21.95C4.02999 22.4833 4.46499 22.9933 5.33332 24.0133C5.67999 24.4183 5.85332 24.6217 5.99832 24.8383C6.33166 25.335 6.56166 25.8933 6.67832 26.48C6.72832 26.735 6.74999 27.0017 6.79166 27.5333C6.89832 28.8683 6.95166 29.5367 7.14832 30.0933C7.37305 30.7298 7.73744 31.3079 8.21474 31.7852C8.69204 32.2626 9.27015 32.6269 9.90666 32.8517C10.4633 33.0483 11.1317 33.1017 12.4667 33.2083C12.9983 33.25 13.265 33.2717 13.52 33.3217C14.1067 33.4383 14.665 33.67 15.1617 34.0017C15.3783 34.1467 15.5817 34.32 15.9867 34.6667C17.0067 35.535 17.5167 35.97 18.05 36.225C19.2833 36.8133 20.7167 36.8133 21.95 36.225C22.4833 35.97 22.9933 35.535 24.0133 34.6667C24.4183 34.32 24.6217 34.1467 24.8383 34.0017C25.335 33.6683 25.8933 33.4383 26.48 33.3217C26.735 33.2717 27.0017 33.25 27.5333 33.2083C28.8683 33.1017 29.5367 33.0483 30.0933 32.8517C30.7298 32.6269 31.3079 32.2626 31.7852 31.7852C32.2625 31.3079 32.6269 30.7298 32.8517 30.0933C33.0483 29.5367 33.1017 28.8683 33.2083 27.5333C33.25 27.0017 33.2717 26.735 33.3217 26.48C33.4383 25.8933 33.67 25.335 34.0017 24.8383C34.1467 24.6217 34.32 24.4183 34.6667 24.0133C35.535 22.9933 35.97 22.4833 36.225 21.95C36.8133 20.7167 36.8133 19.2833 36.225 18.05C35.97 17.5167 35.535 17.0067 34.6667 15.9867C34.4295 15.7245 34.2074 15.4491 34.0017 15.1617C33.6686 14.6648 33.4375 14.1068 33.3217 13.52C33.2644 13.1713 33.2265 12.8196 33.2083 12.4667C33.1017 11.1317 33.0483 10.4633 32.8517 9.90667C32.6269 9.27016 32.2625 8.69205 31.7852 8.21475C31.3079 7.73745 30.7298 7.37306 30.0933 7.14833C29.5367 6.95167 28.8683 6.89833 27.5333 6.79167C27.1804 6.77349 26.8287 6.73565 26.48 6.67833C25.8932 6.56248 25.3352 6.33135 24.8383 5.99833C24.5512 5.79211 24.2758 5.5701 24.0133 5.33333C22.9933 4.465 22.4833 4.03 21.95 3.775C21.3411 3.48397 20.6748 3.33291 20 3.33291C19.3251 3.33291 18.6589 3.48397 18.05 3.775C17.5167 4.03 17.0067 4.465 15.9867 5.33333ZM26.385 13.6167C26.6388 13.871 26.7814 14.2157 26.7814 14.575C26.7814 14.9343 26.6388 15.279 26.385 15.5333L15.5333 26.3867C15.4097 26.522 15.2599 26.6309 15.093 26.7067C14.9261 26.7825 14.7456 26.8238 14.5623 26.8279C14.3791 26.832 14.1969 26.799 14.0267 26.7307C13.8566 26.6625 13.7021 26.5605 13.5724 26.4309C13.4428 26.3013 13.3408 26.1467 13.2726 25.9766C13.2043 25.8064 13.1713 25.6243 13.1754 25.441C13.1796 25.2577 13.2208 25.0772 13.2966 24.9103C13.3725 24.7434 13.4813 24.5936 13.6167 24.47L24.4667 13.6183C24.721 13.3645 25.0657 13.2219 25.425 13.2219C25.7843 13.2219 26.129 13.3645 26.3833 13.6183L26.385 13.6167ZM26.33 24.5217C26.33 25.0013 26.1395 25.4612 25.8003 25.8004C25.4612 26.1395 25.0013 26.33 24.5217 26.33C24.0421 26.33 23.5821 26.1395 23.243 25.8004C22.9038 25.4612 22.7133 25.0013 22.7133 24.5217C22.7133 24.0421 22.9038 23.5821 23.243 23.243C23.5821 22.9039 24.0421 22.7133 24.5217 22.7133C25.0013 22.7133 25.4612 22.9039 25.8003 23.243C26.1395 23.5821 26.33 24.0421 26.33 24.5217ZM15.48 17.2883C15.7175 17.2883 15.9526 17.2416 16.172 17.1507C16.3914 17.0598 16.5908 16.9266 16.7587 16.7587C16.9266 16.5908 17.0598 16.3914 17.1507 16.172C17.2415 15.9526 17.2883 15.7175 17.2883 15.48C17.2883 15.2425 17.2415 15.0074 17.1507 14.788C17.0598 14.5686 16.9266 14.3692 16.7587 14.2013C16.5908 14.0334 16.3914 13.9002 16.172 13.8093C15.9526 13.7184 15.7175 13.6717 15.48 13.6717C15.0004 13.6717 14.5404 13.8622 14.2013 14.2013C13.8622 14.5404 13.6717 15.0004 13.6717 15.48C13.6717 15.9596 13.8622 16.4196 14.2013 16.7587C14.5404 17.0978 15.0004 17.2883 15.48 17.2883Z" fill="white"></path>
									</svg>