<svg width="255" height="18" viewBox="0 0 255 18" fill="none" xmlns="http://www.w3.org/2000/svg">
  <g clipPath="url(#clip0_321_194)">
    <path d="M21.3987 11.5457C18.5547 14.2644 15.3898 15.2114 12.1558 15.2114C6.69227 15.2114 3.96221 12.6779 3.96221 8.94234C3.96221 4.97612 7.19617 2.74316 12.2939 2.76412C14.5718 2.78858 17.7333 3.34071 21.3987 5.57717C21.2399 4.23879 21.2399 3.24985 21.3987 1.91147C17.7575 0.39138 14.7271 0 12.0868 0C4.69046 0 0 3.11008 0 8.94234C0 14.7746 4.23487 18 11.7244 18C16.1422 18 19.0759 17.0076 21.6507 15.1171C21.4919 14.1945 21.2641 12.9051 21.3987 11.5457Z" fill="#153E35"></path>
    <path d="M29.054 15.0262C28.9401 10.8538 28.9849 3.68662 29.2127 0.436768C27.915 0.691864 26.3895 0.642941 24.933 0.436768C25.1159 6.15372 25.1159 11.8916 24.933 17.6086H42.8941C42.8043 16.4554 42.8043 15.5329 42.8941 14.1526C39.8223 14.6837 32.3984 15.0297 29.054 15.0297V15.0262Z" fill="#153E35"></path>
    <path d="M49.7727 0.436768C48.4059 0.667402 46.9494 0.642941 45.4929 0.436768C45.7656 4.74545 45.7656 13.2964 45.4929 17.6086H49.8175C49.5 13.3453 49.5 4.74894 49.7727 0.436768Z" fill="#153E35"></path>
    <path d="M74.4053 0.436768C73.1317 0.667402 71.7857 0.642941 70.3533 0.436768C70.5811 5.11586 70.626 9.84038 70.557 14.5439C66.7328 9.91027 63.0674 5.21021 59.5608 0.436768C58.0594 0.667402 55.4191 0.621974 53.9143 0.436768C54.0972 6.15372 54.0972 11.8916 53.9143 17.6086H58.0111C57.8075 12.9749 57.7385 8.27486 57.8075 3.64119C61.6765 8.20497 65.3868 12.8841 68.9624 17.6086H74.4709C74.2672 11.8916 74.2431 6.15372 74.4018 0.436768H74.4053Z" fill="#153E35"></path>
    <path d="M82.8992 0.436768C81.5325 0.667402 80.076 0.642941 78.6195 0.436768C78.8922 4.74545 78.8922 13.2964 78.6195 17.6086H82.9441C82.6266 13.3453 82.6266 4.74894 82.8992 0.436768Z" fill="#153E35"></path>
    <path d="M107.611 11.5457C104.767 14.2644 101.602 15.2114 98.3685 15.2114C92.9049 15.2114 90.1749 12.6779 90.1749 8.94234C90.1749 4.97612 93.4088 2.74316 98.5065 2.76412C100.784 2.78858 103.946 3.34071 107.611 5.57717C107.453 4.23879 107.453 3.24985 107.611 1.91147C103.97 0.39138 100.94 0 98.2995 0C90.8997 0 86.2126 3.11008 86.2126 8.94234C86.2126 14.7746 90.4475 18 97.9371 18C102.355 18 105.289 17.0076 107.863 15.1171C107.705 14.1945 107.477 12.9051 107.611 11.5457Z" fill="#153E35"></path>
    <path d="M117.265 0.436768C114.873 6.15372 112.129 11.8916 109.375 17.6086H113.838C114.293 16.5008 114.77 15.2568 115.294 13.9883C118.252 13.9184 122.697 13.9184 125.635 14.0128C126.114 15.2358 126.546 16.4554 126.977 17.6086H131.643C128.889 11.8916 126.097 6.15372 123.709 0.436768C122.069 0.737292 118.904 0.642941 117.265 0.436768ZM116.25 11.64C117.752 7.95337 119.474 4.31213 120.406 2.55791C121.862 5.27661 123.446 8.46006 124.699 11.64C122.263 11.7099 118.683 11.7099 116.25 11.64Z" fill="#153E35"></path>
    <path d="M162.906 0.436768C161.633 0.667402 160.287 0.642941 158.854 0.436768C159.082 5.11586 159.127 9.84038 159.058 14.5439C155.234 9.91027 151.568 5.21021 148.062 0.436768C146.56 0.667402 143.92 0.621974 142.415 0.436768C142.598 6.15372 142.598 11.8916 142.415 17.6086H146.512C146.308 12.9749 146.239 8.27486 146.308 3.64119C150.177 8.20497 153.888 12.8841 157.463 17.6086H159.465L162.823 10.6196C162.789 7.22302 162.813 3.8264 162.906 0.436768Z" fill="#153E35"></path>
    <path d="M182.8 0.436768C182.983 1.52005 182.983 2.57888 182.8 3.66216C185.168 3.29175 187.625 3.08557 190.973 3.04015C191.087 7.76467 191.063 14.0128 190.835 17.6086H195.16C194.932 14.0128 194.863 7.78913 194.977 3.04015C198.345 3.08557 200.806 3.29524 203.194 3.66216C203.011 2.57888 203.011 1.52005 203.194 0.436768C195.681 0.621974 190.331 0.621974 182.797 0.436768H182.8Z" fill="#153E35"></path>
    <path d="M210.139 0.436768C208.772 0.667402 207.315 0.642941 205.859 0.436768C206.132 4.74545 206.132 13.2964 205.859 17.6086H210.183C209.866 13.3453 209.866 4.74894 210.139 0.436768Z" fill="#153E35"></path>
    <path d="M229.746 0.436768C227.834 5.16129 224.942 12.283 223.485 15.1415C222.029 12.283 219.136 5.16129 217.383 0.436768C215.833 0.621974 214.446 0.621974 212.9 0.436768C215.768 6.40532 218.091 11.6156 220.389 17.6086H226.443C228.901 11.6156 231.089 6.40532 233.978 0.436768C232.497 0.621974 231.223 0.621974 229.743 0.436768H229.746Z" fill="#153E35"></path>
    <path d="M255 3.96269C254.91 2.80951 254.91 1.63537 255 0.506657C250.834 0.828148 239.52 0.667402 236.742 0.436768C237.015 4.67905 237.015 13.23 236.742 17.6086H255C254.91 16.4554 254.91 15.2358 255 14.0827C251.835 14.6802 245.233 15.0506 240.908 15.0052C240.818 13.4152 240.818 11.8008 240.818 10.2562C245.053 10.1654 250.289 10.3261 253.385 10.5113C253.295 9.58878 253.295 8.55092 253.385 7.60741C250.313 7.81359 245.053 7.9988 240.818 7.92891C240.794 6.2935 240.818 4.65459 240.863 3.01918C245.167 2.97375 251.814 3.34067 255 3.96269Z" fill="#153E35"></path>
    <path d="M170.389 0.436768C167.997 6.15372 165.253 11.8916 162.499 17.6086H166.962C167.417 16.5008 167.893 15.2568 168.418 13.9883C171.376 13.9184 175.821 13.9184 178.758 14.0128C179.238 15.2358 179.67 16.4554 180.101 17.6086H184.767C182.013 11.8916 179.221 6.15372 176.833 0.436768C175.193 0.737292 172.028 0.642941 170.389 0.436768ZM169.374 11.64C170.875 7.95337 172.598 4.31213 173.53 2.55791C174.986 5.27661 176.57 8.46006 177.823 11.64C175.386 11.7099 171.807 11.7099 169.374 11.64Z" fill="#153E35"></path>
  </g>
  <defs>
    <clipPath id="clip0_321_194">
      <rect width="255" height="18" fill="white"></rect>
    </clipPath>
  </defs>
</svg>