<svg class="shrink-0" width="32" height="32" viewBox="0 0 32 32" fill="none" xmlns="http://www.w3.org/2000/svg">
								<path d="M16 3.20011C19.3947 3.20011 22.6505 4.54868 25.0509 6.94914C27.4514 9.34961 28.8 12.6053 28.8 16.0001C28.8 19.3949 27.4514 22.6506 25.0509 25.0511C22.6505 27.4515 19.3947 28.8001 16 28.8001C12.6052 28.8001 9.34945 27.4515 6.94898 25.0511C4.54852 22.6506 3.19995 19.3949 3.19995 16.0001C3.19995 12.6053 4.54852 9.34961 6.94898 6.94914C9.34945 4.54868 12.6052 3.20011 16 3.20011ZM16 4.80011C14.5291 4.80011 13.0727 5.08981 11.7139 5.65266C10.3551 6.21551 9.12037 7.0405 8.08036 8.08052C7.04034 9.12053 6.21535 10.3552 5.6525 11.7141C5.08965 13.0729 4.79995 14.5293 4.79995 16.0001C4.79995 17.4709 5.08965 18.9273 5.6525 20.2862C6.21535 21.645 7.04034 22.8797 8.08036 23.9197C9.12037 24.9597 10.3551 25.7847 11.7139 26.3476C13.0727 26.9104 14.5291 27.2001 16 27.2001C18.9704 27.2001 21.8191 26.0201 23.9195 23.9197C26.02 21.8193 27.2 18.9705 27.2 16.0001C27.2 13.0297 26.02 10.1809 23.9195 8.08052C21.8191 5.98011 18.9704 4.80011 16 4.80011ZM16 21.6001C16.3182 21.6001 16.6234 21.7265 16.8485 21.9516C17.0735 22.1766 17.2 22.4819 17.2 22.8001C17.2 23.1184 17.0735 23.4236 16.8485 23.6486C16.6234 23.8737 16.3182 24.0001 16 24.0001C15.6817 24.0001 15.3765 23.8737 15.1514 23.6486C14.9264 23.4236 14.8 23.1184 14.8 22.8001C14.8 22.4819 14.9264 22.1766 15.1514 21.9516C15.3765 21.7265 15.6817 21.6001 16 21.6001ZM16 8.80011C16.8128 8.80022 17.6063 9.04797 18.2749 9.51036C18.9434 9.97276 19.4552 10.6279 19.742 11.3884C20.0289 12.149 20.0773 12.9789 19.8807 13.7676C19.6841 14.5563 19.2518 15.2664 18.6416 15.8033L18.3952 16.0033L18.0448 16.2641L17.9056 16.3793C17.8181 16.4542 17.7347 16.5337 17.656 16.6177C17.1136 17.1937 16.8 17.9873 16.8 19.2001C16.8 19.4123 16.7157 19.6158 16.5656 19.7658C16.4156 19.9158 16.2121 20.0001 16 20.0001C15.7878 20.0001 15.5843 19.9158 15.4343 19.7658C15.2842 19.6158 15.2 19.4123 15.2 19.2001C15.2 17.5809 15.6688 16.3969 16.488 15.5233C16.6642 15.3366 16.8546 15.1638 17.0576 15.0065L17.4528 14.7105L17.6416 14.5505C17.9319 14.2783 18.1499 13.9382 18.2761 13.5608C18.4023 13.1833 18.4326 12.7804 18.3644 12.3884C18.2962 11.9963 18.1316 11.6273 17.8853 11.3147C17.6391 11.0021 17.319 10.7556 16.9538 10.5974C16.5886 10.4393 16.1898 10.3744 15.7933 10.4087C15.3968 10.4429 15.0151 10.5753 14.6824 10.7937C14.3498 11.0122 14.0767 11.3099 13.8878 11.6602C13.6988 12.0104 13.5999 12.4021 13.6 12.8001C13.6002 13.0123 13.5161 13.2159 13.3662 13.366C13.2163 13.5162 13.0129 13.6007 12.8008 13.6009C12.5886 13.6011 12.385 13.517 12.2348 13.3672C12.0847 13.2173 12.0002 13.0139 12 12.8017C11.9997 12.2763 12.103 11.756 12.304 11.2705C12.5049 10.785 12.7995 10.3439 13.171 9.97225C13.5424 9.60065 13.9834 9.30587 14.4688 9.10475C14.9543 8.90363 15.4745 8.80011 16 8.80011Z" fill="#2D8044"></path>
							</svg>