<svg width="30" height="30" viewBox="0 0 30 30" fill="none" xmlns="http://www.w3.org/2000/svg">
											<path d="M16.786 21.5999C10.7727 21.5999 7.34286 17.3957 7.19995 10.3999H10.2121C10.311 15.5346 12.5316 17.7096 14.2905 18.1581V10.3999H17.1267V14.8283C18.8637 14.6377 20.6885 12.6197 21.3041 10.3999H24.1404C23.9084 11.5512 23.446 12.6412 22.782 13.6019C22.1181 14.5626 21.2669 15.3732 20.2818 15.9831C21.3814 16.5403 22.3527 17.3291 23.1316 18.2973C23.9104 19.2655 24.479 20.3911 24.7999 21.5999H21.6779C21.3898 20.55 20.8043 19.6101 19.9947 18.8982C19.1851 18.1862 18.1874 17.7337 17.1267 17.5975V21.5999H16.786Z" fill="#153E35"></path>
										</svg>