<svg width="22" height="22" viewBox="0 0 22 22" fill="none" xmlns="http://www.w3.org/2000/svg">
										<path d="M17.5405 4.49959C16.6959 3.65068 15.6899 2.97761 14.5811 2.51963C13.4723 2.06165 12.2829 1.82792 11.0824 1.83209C6.05227 1.83209 1.95261 5.91125 1.95261 10.9163C1.95261 12.5204 2.37639 14.0788 3.16869 15.4538L1.87891 20.1654L6.71559 18.9004C8.05143 19.6246 9.55311 20.0096 11.0824 20.0096C16.1126 20.0096 20.2122 15.9304 20.2122 10.9254C20.2122 8.49625 19.2633 6.21375 17.5405 4.49959ZM11.0824 18.4696C9.71894 18.4696 8.38309 18.1029 7.21308 17.4154L6.93669 17.2504L4.06232 18.0021L4.82698 15.2154L4.64273 14.9313C3.8852 13.7276 3.48297 12.3364 3.48192 10.9163C3.48192 6.75459 6.89063 3.36292 11.0732 3.36292C13.1 3.36292 15.007 4.15125 16.435 5.58125C17.1421 6.28155 17.7024 7.11453 18.0835 8.03189C18.4647 8.94926 18.659 9.93277 18.6553 10.9254C18.6737 15.0871 15.265 18.4696 11.0824 18.4696ZM15.2466 12.8229C15.0163 12.7129 13.8923 12.1629 13.6896 12.0804C13.4777 12.0071 13.3303 11.9704 13.1737 12.1904C13.0171 12.4196 12.5841 12.9329 12.4551 13.0796C12.3261 13.2354 12.1879 13.2538 11.9576 13.1346C11.7273 13.0246 10.9903 12.7771 10.1243 12.0071C9.44256 11.4021 8.99113 10.6596 8.85294 10.4304C8.72396 10.2013 8.83452 10.0821 8.95428 9.96292C9.05562 9.86209 9.1846 9.69709 9.29515 9.56875C9.40571 9.44042 9.45177 9.33959 9.52547 9.19292C9.59917 9.03709 9.56232 8.90875 9.50705 8.79875C9.45177 8.68875 8.99113 7.57042 8.80688 7.11209C8.62262 6.67209 8.42916 6.72709 8.29097 6.71792H7.84875C7.69214 6.71792 7.45261 6.77292 7.24071 7.00209C7.03803 7.23125 6.44842 7.78125 6.44842 8.89959C6.44842 10.0179 7.26835 11.0996 7.37891 11.2463C7.48946 11.4021 8.99113 13.6938 11.2759 14.6746C11.8194 14.9129 12.2432 15.0504 12.5749 15.1513C13.1184 15.3254 13.6159 15.2979 14.0121 15.2429C14.4543 15.1788 15.3663 14.6929 15.5506 14.1613C15.7441 13.6296 15.7441 13.1804 15.6796 13.0796C15.6151 12.9788 15.4769 12.9329 15.2466 12.8229Z" fill="#153E35"></path>
									</svg>